<?xml version="1.0" standalone="no"?>
<!DOCTYPE svg PUBLIC "-//W3C//DTD SVG 20010904//EN"
 "http://www.w3.org/TR/2001/REC-SVG-20010904/DTD/svg10.dtd">
<svg version="1.0" xmlns="http://www.w3.org/2000/svg"
 width="256.000000pt" height="256.000000pt" viewBox="0 0 256.000000 256.000000"
 preserveAspectRatio="xMidYMid meet">

<g transform="translate(0.000000,256.000000) scale(0.100000,-0.100000)"
fill="#000000" stroke="none">
<path d="M449 2487 c-55 -37 -61 -69 -57 -342 3 -212 5 -243 21 -267 30 -44
74 -58 179 -58 163 0 198 36 198 203 l0 98 72 -3 73 -3 6 -35 c11 -67 38 -96
104 -110 l30 -6 5 -125 c6 -157 27 -195 118 -214 l32 -7 0 -589 0 -589 -220 0
-220 0 0 98 c0 166 -35 202 -198 202 -105 0 -149 -14 -179 -58 -16 -24 -18
-55 -21 -267 -4 -273 2 -305 57 -342 30 -20 46 -23 140 -23 168 0 201 33 201
200 l0 90 490 0 490 0 0 -90 c0 -167 33 -200 201 -200 94 0 110 3 140 23 55
37 61 69 57 342 -3 212 -5 243 -21 267 -30 44 -74 58 -179 58 -163 0 -198 -36
-198 -202 l0 -98 -220 0 -220 0 0 589 0 589 33 7 c90 19 111 57 117 214 l5
125 30 6 c66 14 93 43 104 110 l6 35 73 3 72 3 0 -98 c0 -167 35 -203 198
-203 105 0 149 14 179 58 16 24 18 55 21 267 4 273 -2 305 -57 342 -30 20 -46
23 -140 23 -168 0 -201 -33 -201 -200 l0 -90 -75 0 -75 0 0 34 c0 39 -28 79
-68 95 -20 8 -105 11 -291 9 l-263 -3 -29 -33 c-20 -22 -29 -43 -29 -67 l0
-35 -75 0 -75 0 0 90 c0 167 -33 200 -201 200 -94 0 -110 -3 -140 -23z m236
-322 l0 -240 -95 0 -95 0 -3 230 c-1 126 0 235 3 243 3 9 28 12 97 10 l93 -3
0 -240z m1380 0 l0 -240 -95 0 -95 0 -3 230 c-1 126 0 235 3 243 3 9 28 12 97
10 l93 -3 0 -240z m-537 20 c4 -99 0 -109 -50 -122 -24 -6 -54 -24 -68 -38
-23 -25 -25 -34 -28 -153 -2 -70 -8 -133 -14 -139 -14 -17 -160 -17 -176 -1
-8 8 -12 51 -12 129 0 104 -2 119 -23 150 -15 23 -37 39 -67 49 -25 8 -48 20
-52 25 -10 13 -10 159 -1 169 4 3 115 5 247 4 l241 -3 3 -70z m-843 -1790 l0
-240 -95 0 -95 0 -3 230 c-1 126 0 235 3 243 3 9 28 12 97 10 l93 -3 0 -240z
m1380 0 l0 -240 -95 0 -95 0 -3 230 c-1 126 0 235 3 243 3 9 28 12 97 10 l93
-3 0 -240z"/>
</g>
</svg>
