<?xml version="1.0" standalone="no"?>
<!DOCTYPE svg PUBLIC "-//W3C//DTD SVG 20010904//EN"
 "http://www.w3.org/TR/2001/REC-SVG-20010904/DTD/svg10.dtd">
<svg version="1.0" xmlns="http://www.w3.org/2000/svg"
 width="510.000000pt" height="374.000000pt" viewBox="0 0 510.000000 374.000000"
 preserveAspectRatio="xMidYMid meet">

<g transform="translate(0.000000,374.000000) scale(0.100000,-0.100000)"
fill="#000000" stroke="none">
<path d="M2370 3713 c-72 -158 -1654 -3682 -1657 -3695 -5 -17 41 -18 865 -18
l870 0 6 68 c3 37 8 229 11 427 3 198 8 381 11 407 l6 48 68 0 68 0 6 -37 c3
-21 8 -202 11 -403 3 -201 8 -398 11 -437 l6 -73 870 0 c824 0 870 1 865 18
-3 13 -1589 3547 -1657 3695 -13 26 -16 27 -91 27 -52 0 -79 -4 -83 -12 -5
-10 -7 -10 -12 0 -4 8 -31 12 -83 12 -75 0 -78 -1 -91 -27z m190 -38 c0 -8 -4
-15 -10 -15 -5 0 -10 7 -10 15 0 8 5 15 10 15 6 0 10 -7 10 -15z m0 -70 c0 -8
-4 -15 -10 -15 -5 0 -10 7 -10 15 0 8 5 15 10 15 6 0 10 -7 10 -15z m0 -75 c0
-11 -4 -20 -10 -20 -5 0 -10 9 -10 20 0 11 5 20 10 20 6 0 10 -9 10 -20z m0
-100 c0 -16 -4 -30 -10 -30 -5 0 -10 14 -10 30 0 17 5 30 10 30 6 0 10 -13 10
-30z m10 -145 c0 -38 -3 -45 -20 -45 -17 0 -20 7 -20 45 0 38 3 45 20 45 17 0
20 -7 20 -45z m0 -195 c0 -53 -2 -60 -20 -60 -18 0 -20 7 -20 60 0 53 2 60 20
60 18 0 20 -7 20 -60z m10 -240 l0 -80 -30 0 -30 0 0 80 0 80 30 0 30 0 0 -80z
m4 -257 c3 -42 6 -107 6 -145 l0 -68 -40 0 -40 0 0 53 c0 30 3 95 6 145 7 92
7 92 34 92 26 0 27 -2 34 -77z m10 -410 c3 -42 6 -123 6 -180 l0 -103 -50 0
-50 0 0 88 c0 49 3 130 6 180 l7 92 37 0 37 0 7 -77z m10 -475 c3 -7 7 -127
10 -265 l5 -253 -69 0 -68 0 5 253 c2 138 6 258 8 265 3 7 23 12 55 12 32 0
52 -5 54 -12z"/>
</g>
</svg>
