<?xml version="1.0" encoding="UTF-8"?>
<svg version="1.1" xmlns="http://www.w3.org/2000/svg" width="100" height="57">
<path d="M0 0 C2.31691454 0.72166191 4.64848923 1.40059529 7 2 C8.31357216 2.37122692 9.62608987 2.74620624 10.9375 3.125 C11.948125 3.41375 12.95875 3.7025 14 4 C13.125 8.75 13.125 8.75 12 11 C7.72155912 11.5185989 5.57649469 10.1894147 1.98046875 8.01953125 C-5.01590629 4.41784706 -13.5874006 4.66576999 -21.28662109 4.34106445 C-26.8052108 4.0973946 -26.8052108 4.0973946 -29 3 C-29 3.66 -29 4.32 -29 5 C-28.26394531 5.12117187 -27.52789062 5.24234375 -26.76953125 5.3671875 C-25.79371094 5.53476563 -24.81789062 5.70234375 -23.8125 5.875 C-22.84957031 6.03742187 -21.88664062 6.19984375 -20.89453125 6.3671875 C-15.96213318 7.44552554 -12.8693403 8.62920056 -9.6875 12.625 C-9.17574219 13.25664062 -8.66398437 13.88828125 -8.13671875 14.5390625 C-7.76160156 15.02117188 -7.38648438 15.50328125 -7 16 C-7 15.34 -7 14.68 -7 14 C5.21 14 17.42 14 30 14 C29.505 16.475 29.505 16.475 29 19 C29.37722015 21.72502965 29.37722015 21.72502965 30 24 C27.09307311 26.8188382 25.51413456 27.93686067 21.4375 28.4375 C18 28 18 28 16.15136719 26.50463867 C13.36744175 24.55759686 11.51627205 24.5743947 8.140625 24.48828125 C7.02558594 24.45283203 5.91054687 24.41738281 4.76171875 24.38085938 C3.60285156 24.35830078 2.44398437 24.33574219 1.25 24.3125 C0.07566406 24.27833984 -1.09867187 24.24417969 -2.30859375 24.20898438 C-5.20563389 24.12654827 -8.10237298 24.05738189 -11 24 C-11.495 25.485 -11.495 25.485 -12 27 C-14.46009963 28.23004981 -16.13172806 28.13314027 -18.875 28.125 C-19.73867188 28.12757812 -20.60234375 28.13015625 -21.4921875 28.1328125 C-24 28 -24 28 -26.1953125 27.4296875 C-28.08599617 26.77540648 -28.08599617 26.77540648 -30 28 C-36.47058824 28.35294118 -36.47058824 28.35294118 -40 26 C-40 25.34 -40 24.68 -40 24 C-40.99 24.66 -41.98 25.32 -43 26 C-45.08844097 25.86105131 -47.01764865 25.43372292 -49.0625 24.99609375 C-49.701875 24.99738281 -50.34125 24.99867187 -51 25 C-51.71349609 25.71736328 -51.71349609 25.71736328 -52.44140625 26.44921875 C-54 28 -54 28 -56.33984375 28.3984375 C-57.19707031 28.39070313 -58.05429687 28.38296875 -58.9375 28.375 C-60.21947266 28.38660156 -60.21947266 28.38660156 -61.52734375 28.3984375 C-64.47925464 27.92277413 -65.88227182 27.09316056 -68 25 C-68 24.01 -68 23.02 -68 22 C-68.66 22 -69.32 22 -70 22 C-70.76559546 11.33270321 -70.76559546 11.33270321 -68.3125 7.0625 C-64.15669889 4.47492572 -59.89375316 2.84718333 -55.29296875 1.19921875 C-51.78571475 -0.07803745 -48.45302047 -1.57547317 -45.09765625 -3.203125 C-31.67400351 -8.30261319 -12.38207046 -6.87410917 0 0 Z M-54 10 C-54.33 10.66 -54.66 11.32 -55 12 C-53.68 11.34 -52.36 10.68 -51 10 C-51.99 10 -52.98 10 -54 10 Z M-38 10 C-36.02 10.99 -36.02 10.99 -34 12 C-33.390625 14.3828125 -33.390625 14.3828125 -33.25 17.125 C-33.19328125 18.03507812 -33.1365625 18.94515625 -33.078125 19.8828125 C-33.05234375 20.58148438 -33.0265625 21.28015625 -33 22 C-31.68 22 -30.36 22 -29 22 C-28.67 18.37 -28.34 14.74 -28 11 C-31.3 10.67 -34.6 10.34 -38 10 Z M-63 11 C-64.26878594 12.6107605 -64.26878594 12.6107605 -65 15 C-64.2046876 18.70172534 -64.2046876 18.70172534 -63 22 C-61.68 22.33 -60.36 22.66 -59 23 C-56.62777005 20.10420618 -56.62777005 20.10420618 -57.25 16.4375 C-57.6858444 12.95407388 -57.6858444 12.95407388 -60 11 C-60.99 11 -61.98 11 -63 11 Z M-23 11 C-24.26878594 12.6107605 -24.26878594 12.6107605 -25 15 C-24.2046876 18.70172534 -24.2046876 18.70172534 -23 22 C-21.10820797 22.6814823 -21.10820797 22.6814823 -19 23 C-16.63589512 21.06268472 -16.63589512 21.06268472 -16.6875 17.5625 C-16.69980035 14.10492207 -16.69980035 14.10492207 -18.3125 12.0625 C-20.09076108 10.73359337 -20.09076108 10.73359337 -23 11 Z M-46 16 C-46 16.33 -46 16.66 -46 17 C-44.35 17 -42.7 17 -41 17 C-41 16.67 -41 16.34 -41 16 C-42.65 16 -44.3 16 -46 16 Z M-3 19 C-3 19.33 -3 19.66 -3 20 C0.63 20 4.26 20 8 20 C8 19.67 8 19.34 8 19 C4.37 19 0.74 19 -3 19 Z " fill="#E2F5F2" transform="translate(70,5)"/>
<path d="M0 0 C2.03124873 -0.00369318 4.06105259 0.1478886 6.0859375 0.30859375 C6.7459375 0.30859375 7.4059375 0.30859375 8.0859375 0.30859375 C10.75260417 0.30859375 13.41927083 0.30859375 16.0859375 0.30859375 C16.7459375 1.95859375 17.4059375 3.60859375 18.0859375 5.30859375 C18.4571875 4.48359375 18.8284375 3.65859375 19.2109375 2.80859375 C19.8296875 1.98359375 20.4484375 1.15859375 21.0859375 0.30859375 C24.2734375 -0.00390625 24.2734375 -0.00390625 27.0859375 0.30859375 C27.5809375 2.28859375 27.5809375 2.28859375 28.0859375 4.30859375 C28.7459375 2.98859375 29.4059375 1.66859375 30.0859375 0.30859375 C33.19008452 0.27955798 36.29419659 0.26178305 39.3984375 0.24609375 C40.72004883 0.23352539 40.72004883 0.23352539 42.06835938 0.22070312 C42.91591797 0.21748047 43.76347656 0.21425781 44.63671875 0.2109375 C45.41700439 0.20570068 46.19729004 0.20046387 47.0012207 0.19506836 C49.0859375 0.30859375 49.0859375 0.30859375 52.0859375 1.30859375 C52.7459375 0.97859375 53.4059375 0.64859375 54.0859375 0.30859375 C56.7582996 0.17443903 59.40844238 0.26540834 62.0859375 0.30859375 C61.7559375 1.95859375 61.4259375 3.60859375 61.0859375 5.30859375 C59.7659375 5.63859375 58.4459375 5.96859375 57.0859375 6.30859375 C58.4059375 6.63859375 59.7259375 6.96859375 61.0859375 7.30859375 C62.4059375 4.99859375 63.7259375 2.68859375 65.0859375 0.30859375 C67.0659375 0.30859375 69.0459375 0.30859375 71.0859375 0.30859375 C71.5809375 1.79359375 71.5809375 1.79359375 72.0859375 3.30859375 C72.4159375 2.31859375 72.7459375 1.32859375 73.0859375 0.30859375 C74.56500642 0.28170159 76.04421233 0.26224754 77.5234375 0.24609375 C78.34714844 0.23449219 79.17085938 0.22289062 80.01953125 0.2109375 C82.0859375 0.30859375 82.0859375 0.30859375 83.0859375 1.30859375 C83.0859375 4.60859375 83.0859375 7.90859375 83.0859375 11.30859375 C54.3759375 11.30859375 25.6659375 11.30859375 -3.9140625 11.30859375 C-4.9140625 5.30859375 -4.9140625 5.30859375 -3.9765625 2.43359375 C-1.9140625 0.30859375 -1.9140625 0.30859375 0 0 Z M45.0859375 5.30859375 C46.0859375 7.30859375 46.0859375 7.30859375 46.0859375 7.30859375 Z " fill="#01B297" transform="translate(9.9140625,45.69140625)"/>
<path d="M0 0 C5.60701989 0.54297228 9.81368457 1.08958575 13.5625 5.5625 C14.39357742 6.69493128 15.21077886 7.83801021 16 9 C16.495 9.495 16.495 9.495 17 10 C17 9.34 17 8.68 17 8 C29.21 8 41.42 8 54 8 C53.67 9.65 53.34 11.3 53 13 C53.37722015 15.72502965 53.37722015 15.72502965 54 18 C51.09307311 20.8188382 49.51413456 21.93686067 45.4375 22.4375 C42 22 42 22 40.15136719 20.50463867 C37.36744175 18.55759686 35.51627205 18.5743947 32.140625 18.48828125 C31.02558594 18.45283203 29.91054687 18.41738281 28.76171875 18.38085938 C27.60285156 18.35830078 26.44398437 18.33574219 25.25 18.3125 C24.07566406 18.27833984 22.90132812 18.24417969 21.69140625 18.20898438 C18.79436611 18.12654827 15.89762702 18.05738189 13 18 C12.67 18.99 12.34 19.98 12 21 C9.53990037 22.23004981 7.86827194 22.13314027 5.125 22.125 C4.26132812 22.12757812 3.39765625 22.13015625 2.5078125 22.1328125 C0 22 0 22 -2.1953125 21.4296875 C-4.08599617 20.77540648 -4.08599617 20.77540648 -6 22 C-12.29017161 22.5824233 -12.29017161 22.5824233 -15.4375 20 C-15.953125 19.34 -16.46875 18.68 -17 18 C-16.67 17.34 -16.34 16.68 -16 16 C-12.37 16 -8.74 16 -5 16 C-5.061875 14.618125 -5.12375 13.23625 -5.1875 11.8125 C-5.193922 7.74095024 -4.69610015 5.21458095 -2 2 C-1.34 2 -0.68 2 0 2 C0 1.34 0 0.68 0 0 Z M1 5 C-0.26878594 6.6107605 -0.26878594 6.6107605 -1 9 C-0.2046876 12.70172534 -0.2046876 12.70172534 1 16 C2.89179203 16.6814823 2.89179203 16.6814823 5 17 C7.36410488 15.06268472 7.36410488 15.06268472 7.3125 11.5625 C7.30019965 8.10492207 7.30019965 8.10492207 5.6875 6.0625 C3.90923892 4.73359337 3.90923892 4.73359337 1 5 Z M21 13 C21 13.33 21 13.66 21 14 C24.63 14 28.26 14 32 14 C32 13.67 32 13.34 32 13 C28.37 13 24.74 13 21 13 Z " fill="#07BB9F" transform="translate(46,11)"/>
<path d="M0 0 C2.31691454 0.72166191 4.64848923 1.40059529 7 2 C8.31357216 2.37122692 9.62608987 2.74620624 10.9375 3.125 C11.948125 3.41375 12.95875 3.7025 14 4 C13.125 8.75 13.125 8.75 12 11 C7.72155912 11.5185989 5.57649469 10.1894147 1.98046875 8.01953125 C-5.01590629 4.41784706 -13.5874006 4.66576999 -21.28662109 4.34106445 C-26.8052108 4.0973946 -26.8052108 4.0973946 -29 3 C-29 3.66 -29 4.32 -29 5 C-36.09434233 5.09733092 -42.98194143 5.10087193 -50 4 C-49.875 1.6875 -49.875 1.6875 -49 -1 C-36.16987989 -9.35449682 -12.84826511 -7.13292476 0 0 Z " fill="#02B89C" transform="translate(70,5)"/>
<path d="M0 0 C6.31606218 1.43005181 6.31606218 1.43005181 8.875 3.5625 C10.32955502 6.71403587 10.55248142 9.63252737 10.7890625 13.07421875 C10.7973509 15.00598803 10.7973509 15.00598803 12 16 C14.01594582 16.23427778 16.038474 16.41336124 18.0625 16.5625 C19.16722656 16.64628906 20.27195313 16.73007812 21.41015625 16.81640625 C22.26480469 16.87699219 23.11945313 16.93757813 24 17 C24 17.33 24 17.66 24 18 C20.37 18 16.74 18 13 18 C12.67 18.99 12.34 19.98 12 21 C9.53990037 22.23004981 7.86827194 22.13314027 5.125 22.125 C4.26132812 22.12757812 3.39765625 22.13015625 2.5078125 22.1328125 C0 22 0 22 -2.1953125 21.4296875 C-4.08599617 20.77540648 -4.08599617 20.77540648 -6 22 C-12.29017161 22.5824233 -12.29017161 22.5824233 -15.4375 20 C-15.953125 19.34 -16.46875 18.68 -17 18 C-16.67 17.34 -16.34 16.68 -16 16 C-12.37 16 -8.74 16 -5 16 C-5.061875 14.618125 -5.12375 13.23625 -5.1875 11.8125 C-5.193922 7.74095024 -4.69610015 5.21458095 -2 2 C-1.34 2 -0.68 2 0 2 C0 1.34 0 0.68 0 0 Z M1 5 C-0.26878594 6.6107605 -0.26878594 6.6107605 -1 9 C-0.2046876 12.70172534 -0.2046876 12.70172534 1 16 C2.89179203 16.6814823 2.89179203 16.6814823 5 17 C7.36410488 15.06268472 7.36410488 15.06268472 7.3125 11.5625 C7.30019965 8.10492207 7.30019965 8.10492207 5.6875 6.0625 C3.90923892 4.73359337 3.90923892 4.73359337 1 5 Z " fill="#02B89C" transform="translate(46,11)"/>
<path d="M0 0 C0 0.66 0 1.32 0 2 C1.5778125 1.87625 1.5778125 1.87625 3.1875 1.75 C7 2 7 2 9.9375 3.3125 C13.16634236 7.51977944 12.39715546 11.88110743 12 17 C12.99 17.33 13.98 17.66 15 18 C13.625 20 13.625 20 11 22 C6.60722971 22.69321126 2.60468058 22.92973892 -1.3125 20.66015625 C-2.1478125 19.83837891 -2.1478125 19.83837891 -3 19 C-3 18.01 -3 17.02 -3 16 C-3.66 16 -4.32 16 -5 16 C-5.08133791 14.08404032 -5.13934367 12.16708068 -5.1875 10.25 C-5.22230469 9.18265625 -5.25710937 8.1153125 -5.29296875 7.015625 C-4.94860213 3.47094463 -4.06391445 0 0 0 Z M2 5 C0.73121406 6.6107605 0.73121406 6.6107605 0 9 C0.7953124 12.70172534 0.7953124 12.70172534 2 16 C3.32 16.33 4.64 16.66 6 17 C8.37222995 14.10420618 8.37222995 14.10420618 7.75 10.4375 C7.3141556 6.95407388 7.3141556 6.95407388 5 5 C4.01 5 3.02 5 2 5 Z " fill="#04BA9E" transform="translate(5,11)"/>
<path d="M0 0 C0.66 0.33 1.32 0.66 2 1 C2.40729228 3.32156597 2.74438677 5.6568787 3 8 C5.31 8.66 7.62 9.32 10 10 C10 10.33 10 10.66 10 11 C8.02 11 6.04 11 4 11 C4 15.95 4 20.9 4 26 C3.01 26 2.02 26 1 26 C1 25.34 1 24.68 1 24 C0.01 24 -0.98 24 -2 24 C-2 20.04 -2 16.08 -2 12 C-3.32 11.67 -4.64 11.34 -6 11 C-6.33 10.67 -6.66 10.34 -7 10 C-9.32817964 9.63239269 -11.6618385 9.29758419 -14 9 C-14 8.01 -14 7.02 -14 6 C-13.07316406 5.65066406 -12.14632813 5.30132812 -11.19140625 4.94140625 C-9.99386719 4.48636719 -8.79632813 4.03132812 -7.5625 3.5625 C-6.36753906 3.11003906 -5.17257812 2.65757812 -3.94140625 2.19140625 C-1.15554277 1.2855174 -1.15554277 1.2855174 0 0 Z " fill="#C8EEE7" transform="translate(19,4)"/>
<path d="M0 0 C4.2742558 1.5830577 6.26531794 4.50568404 9 8 C9 7.34 9 6.68 9 6 C11.24993359 5.97292861 13.49996095 5.95357171 15.75 5.9375 C17.00296875 5.92589844 18.2559375 5.91429687 19.546875 5.90234375 C22.28536501 5.97978973 24.41880293 6.17219185 27 7 C27 8.32 27 9.64 27 11 C22.38 11 17.76 11 13 11 C13 11.99 13 12.98 13 14 C11.35425434 14.02688151 9.70838587 14.04634123 8.0625 14.0625 C7.14597656 14.07410156 6.22945312 14.08570313 5.28515625 14.09765625 C3 14 3 14 2 13 C1.79087297 11.56806079 1.63208021 10.12858946 1.5 8.6875 C1.22292575 5.69410854 0.79659016 2.90091582 0 0 Z " fill="#9EE2D6" transform="translate(54,13)"/>
<path d="M0 0 C2.31 0 4.62 0 7 0 C7.33 2.64 7.66 5.28 8 8 C7.34 8 6.68 8 6 8 C6.226875 8.763125 6.45375 9.52625 6.6875 10.3125 C7 13 7 13 5.875 14.8125 C4 16 4 16 -1 16 C-0.67 10.72 -0.34 5.44 0 0 Z M1 6 C1 6.33 1 6.66 1 7 C2.65 7 4.3 7 6 7 C6 6.67 6 6.34 6 6 C4.35 6 2.7 6 1 6 Z " fill="#92DED1" transform="translate(23,15)"/>
<path d="M0 0 C0 0.33 0 0.66 0 1 C-1.98 1 -3.96 1 -6 1 C-6 5.95 -6 10.9 -6 16 C-6.99 16 -7.98 16 -9 16 C-9 15.34 -9 14.68 -9 14 C-9.99 14 -10.98 14 -12 14 C-12 10.04 -12 6.08 -12 2 C-4.71428571 -1.57142857 -4.71428571 -1.57142857 0 0 Z " fill="#50CEBB" transform="translate(29,14)"/>
<path d="M0 0 C1.85772162 0.08984301 3.71247985 0.24611861 5.5625 0.4375 C7.08037109 0.59025391 7.08037109 0.59025391 8.62890625 0.74609375 C9.80259766 0.87177734 9.80259766 0.87177734 11 1 C12.1171875 4.71875 12.1171875 4.71875 11.0625 7.25 C10.711875 7.8275 10.36125 8.405 10 9 C4.92387682 9.61528766 2.17017994 7.61658349 -2 5 C-1.125 1.125 -1.125 1.125 0 0 Z " fill="#DDF4EF" transform="translate(72,7)"/>
<path d="M0 0 C5.93002267 -0.37851209 10.47239641 0.89424625 16 3 C16 3.99 16 4.98 16 6 C11.38 6 6.76 6 2 6 C2 4.68 2 3.36 2 2 C1.34 2 0.68 2 0 2 C0 1.34 0 0.68 0 0 Z " fill="#00B89B" transform="translate(59,12)"/>
<path d="M0 0 C1.79158489 -0.02696365 3.58328473 -0.04637917 5.375 -0.0625 C6.37273438 -0.07410156 7.37046875 -0.08570313 8.3984375 -0.09765625 C11 0 11 0 13 1 C13 3 13 3 11.5625 4.6875 C7.67500366 6.67865666 4.19190338 5.74343586 0 5 C0 3.35 0 1.7 0 0 Z " fill="#9DE1D5" transform="translate(33,10)"/>
<path d="M0 0 C0.66 0 1.32 0 2 0 C2.33 2.64 2.66 5.28 3 8 C2.34 8 1.68 8 1 8 C1.226875 8.763125 1.45375 9.52625 1.6875 10.3125 C2 13 2 13 0.75 14.8125 C-1 16 -1 16 -4 16 C-4 15.34 -4 14.68 -4 14 C-3.34 14 -2.68 14 -2 14 C-2.020625 12.865625 -2.04125 11.73125 -2.0625 10.5625 C-2 7 -2 7 -1 6 C-1 5.175 -1 4.35 -1 3.5 C-1 1 -1 1 0 0 Z " fill="#AEE6DC" transform="translate(28,15)"/>
<path d="M0 0 C2.1519437 3.22791555 2.20086443 4.28400809 2 8 C1.484375 7.690625 0.96875 7.38125 0.4375 7.0625 C-2.66665423 5.70940713 -5.65115007 5.38640576 -9 5 C-9 4.01 -9 3.02 -9 2 C-3.375 0 -3.375 0 0 0 Z " fill="#93DED1" transform="translate(14,8)"/>
<path d="M0 0 C3.3 0 6.6 0 10 0 C9.67 1.65 9.34 3.3 9 5 C6.03 5 3.06 5 0 5 C0 3.35 0 1.7 0 0 Z " fill="#74D7C7" transform="translate(90,19)"/>
<path d="M0 0 C3.3 0.33 6.6 0.66 10 1 C10 2.32 10 3.64 10 5 C6.37 5 2.74 5 -1 5 C-0.67 3.35 -0.34 1.7 0 0 Z " fill="#8CDCCF" transform="translate(71,19)"/>
<path d="M0 0 C1.2065625 0.0309375 1.2065625 0.0309375 2.4375 0.0625 C3.4375 3.0625 3.4375 3.0625 2.5 5.25 C1.9740625 6.1471875 1.9740625 6.1471875 1.4375 7.0625 C-0.5425 6.4025 -2.5225 5.7425 -4.5625 5.0625 C-3.43829114 0.08386076 -3.43829114 0.08386076 0 0 Z " fill="#76D7C7" transform="translate(74.5625,6.9375)"/>
<path d="M0 0 C0 0.99 0 1.98 0 3 C0.66 3 1.32 3 2 3 C1.67 3.99 1.34 4.98 1 6 C-1.64 6 -4.28 6 -7 6 C-6.75 4.125 -6.75 4.125 -6 2 C-3.85331506 0.61504198 -2.56128588 0 0 0 Z " fill="#00B89B" transform="translate(98,12)"/>
<path d="M0 0 C2.64 0 5.28 0 8 0 C7.67 1.65 7.34 3.3 7 5 C4.03 4.505 4.03 4.505 1 4 C0.67 2.68 0.34 1.36 0 0 Z " fill="#C6EDE5" transform="translate(63,19)"/>
<path d="M0 0 C4 2 4 2 5.3125 3.8125 C6.17031512 6.54191176 5.75644808 8.27678692 5 11 C4.34 11 3.68 11 3 11 C2.01 7.37 1.02 3.74 0 0 Z " fill="#DAF3EE" transform="translate(54,13)"/>
<path d="M0 0 C2.31 0 4.62 0 7 0 C7.33 1.65 7.66 3.3 8 5 C5.69 4.67 3.38 4.34 1 4 C0.67 2.68 0.34 1.36 0 0 Z " fill="#EBF8F6" transform="translate(21,9)"/>
<path d="M0 0 C1.32 0 2.64 0 4 0 C3.67 3.96 3.34 7.92 3 12 C1 10 1 10 0.9375 7.6875 C0.958125 6.800625 0.97875 5.91375 1 5 C0.70250054 3.32656552 0.37872934 1.65694085 0 0 Z " fill="#D1F0EA" transform="translate(29,10)"/>
<path d="M0 0 C2.97 0.495 2.97 0.495 6 1 C6 1.66 6 2.32 6 3 C2.53846154 6 2.53846154 6 0 6 C0 4.02 0 2.04 0 0 Z " fill="#5DD1C0" transform="translate(40,10)"/>
<path d="M0 0 C0.33 0 0.66 0 1 0 C1 3.3 1 6.6 1 10 C0.34 9.01 -0.32 8.02 -1 7 C-1.66 7 -2.32 7 -3 7 C-2.38722388 4.03824877 -1.74627478 2.61941217 0 0 Z " fill="#0AC0A7" transform="translate(16,17)"/>
<path d="M0 0 C0 1.32 0 2.64 0 4 C-1.98 4 -3.96 4 -6 4 C-6 3.01 -6 2.02 -6 1 C-4 0 -4 0 0 0 Z " fill="#5AD0BE" transform="translate(11,9)"/>
<path d="M0 0 C1.32 0 2.64 0 4 0 C4.66 2.64 5.32 5.28 6 8 C5.01 8 4.02 8 3 8 C2.01 5.36 1.02 2.72 0 0 Z " fill="#B1E6DD" transform="translate(13,7)"/>
<path d="M0 0 C1.65 0 3.3 0 5 0 C5 1.32 5 2.64 5 4 C3.35 4 1.7 4 0 4 C0 2.68 0 1.36 0 0 Z " fill="#49CEBA" transform="translate(76,20)"/>
<path d="M0 0 C0.66 0 1.32 0 2 0 C2.33 2.31 2.66 4.62 3 7 C1.68 6.67 0.36 6.34 -1 6 C-1.042721 4.33388095 -1.04063832 2.66617115 -1 1 C-0.67 0.67 -0.34 0.34 0 0 Z " fill="#BAE9E1" transform="translate(28,15)"/>
<path d="M0 0 C1.32 0 2.64 0 4 0 C3.67 1.65 3.34 3.3 3 5 C2.01 5 1.02 5 0 5 C0 3.35 0 1.7 0 0 Z " fill="#CBEEE7" transform="translate(96,19)"/>
<path d="M0 0 C0.99 0.33 1.98 0.66 3 1 C2.34 2.98 1.68 4.96 1 7 C0.01 6.67 -0.98 6.34 -2 6 C-1.34 4.02 -0.68 2.04 0 0 Z " fill="#A8E4D9" transform="translate(75,7)"/>
</svg>
